PathFileType	4	(X/Y/Z)	D:\TRACE\spotREDO_2-26-24\spot_justBody_Motion_1_2-v60.trc
DataRate	CameraRate	NumFrames	NumMarkers	Units	OrigDataRate	OrigDataStartFrame	OrigNumFrames
100.00	100.00	      34	9	mm	100.00	6126	      7000
Frame#	Time	front left toe			Front right toe			aft left toe			aft right toe			Arm			FL body			FR body			AL Body			AR Body			
		X1	Y1	Z1	X2	Y2	Z2	X3	Y3	Z3	X4	Y4	Z4	X5	Y5	Z5	X6	Y6	Z6	X7	Y7	Z7	X8	Y8	Z8	X9	Y9	Z9	

6126	61.250	-361.80048	26.73393	-133.67813	177.61555	25.74316	-210.94012	-303.88287	20.13543	358.00864	296.65637	25.38212	318.22644	-84.96578	804.85083	-361.73306	-160.73982	544.27289	-324.08099	-6.13468	551.01135	-346.62891	-44.89905	565.40155	551.78870	102.41817	568.25360	532.94922	
6127	61.260	-361.17477	26.46278	-133.48700	178.32689	25.80301	-210.77681	-303.40738	19.83175	358.13623	296.93613	25.12814	318.24936	-85.25448	805.04926	-360.82474	-161.13081	544.52820	-323.64655	-6.71128	551.17255	-346.06570	-45.05644	565.19495	552.18555	102.17767	567.74384	533.57123	
6128	61.270	-360.83646	26.39300	-133.46773	178.58865	25.88581	-210.78943	-303.04419	19.66396	358.33121	297.31934	24.89092	318.31720	-85.77631	805.38269	-360.27838	-161.90417	544.96295	-322.97131	-7.23187	551.41321	-345.53937	-44.89471	564.85266	552.88733	101.99268	567.47290	534.00000	
6129	61.280	-360.44745	26.63107	-133.24893	179.13188	26.34471	-210.69585	-302.53275	19.38411	358.61517	297.86877	24.83244	318.43500	-86.40721	805.77936	-359.53180	-162.38528	545.12738	-322.14639	-7.96597	551.57581	-345.01059	-44.90682	564.77673	553.38763	102.21101	567.07953	534.43958	
6130	61.290	-360.08838	27.01531	-133.23584	179.55209	26.53335	-210.66916	-301.74222	19.05053	358.84360	298.30249	24.77957	318.53598	-86.93045	805.94855	-358.75766	-162.74088	545.37689	-321.46371	-8.61972	551.79248	-344.45483	-44.79900	564.38531	554.17877	102.24652	566.74023	534.96918	
6131	61.300	-359.70197	26.94615	-133.13832	180.29433	26.75718	-210.56316	-301.27817	18.91542	358.96860	298.65628	24.70004	318.63519	-87.20798	806.03638	-358.00220	-163.87460	545.80054	-320.97528	-8.98232	551.81549	-343.74924	-45.23069	564.23206	554.65710	102.14735	566.45068	535.42566	
6132	61.310	-359.00040	26.60757	-132.82497	180.44557	27.15011	-210.62924	-300.70514	18.73150	359.10205	299.07413	24.57699	318.58350	-87.58896	806.27246	-357.09137	-164.17772	546.10211	-320.18961	-9.56480	552.05084	-342.98804	-44.87871	563.99225	555.35413	102.08725	566.01758	536.00061	
6133	61.320	-358.30560	26.59608	-132.62402	180.60786	27.18242	-210.63908	-300.34814	18.69332	359.09213	299.54877	24.34377	318.57547	-87.75885	806.46228	-356.29373	-164.44547	546.20239	-319.21893	-9.85165	552.32275	-342.44424	-44.72654	563.75085	555.97968	102.22791	565.56982	536.55341	
6134	61.330	-357.93503	26.89091	-132.58397	181.41223	27.16995	-210.45654	-299.74133	18.44566	359.06918	300.28009	24.22220	318.81784	-88.39921	806.82190	-355.47125	-165.15782	546.76495	-318.66138	-10.34028	552.59686	-341.71494	-44.53582	563.43774	556.85651	102.66681	565.24536	537.14056	
6135	61.340	-357.57764	26.95541	-132.58826	182.26534	27.49048	-210.26599	-299.05533	18.22376	359.27499	300.86710	24.15930	318.84637	-88.49660	807.19110	-354.68488	-165.97177	547.24335	-318.32379	-10.96312	552.82196	-341.14606	-44.28243	563.17731	557.39178	102.67394	565.07220	537.66864	
6136	61.350	-356.67932	26.93639	-132.33740	182.64059	27.56805	-210.28134	-298.38855	18.05155	359.54468	301.38315	24.14107	318.84216	-88.63755	807.59644	-353.48593	-165.93381	547.32971	-317.12964	-11.34710	553.06091	-340.49896	-43.88218	562.78906	558.04877	103.20231	564.66687	538.52283	
6137	61.360	-356.13831	26.89625	-132.06450	183.40508	27.83038	-210.13951	-297.95544	17.89305	359.86096	301.67929	23.97773	318.86517	-88.97880	807.83514	-352.84473	-166.84952	548.06195	-316.79333	-11.62356	553.20563	-339.68103	-43.51225	562.41174	558.95892	103.49977	564.22510	539.16962	
6138	61.370	-355.55817	26.88341	-131.68422	183.80264	28.13222	-210.28490	-297.29562	17.49354	359.94339	302.69907	23.89277	318.92935	-89.00149	808.15845	-351.85391	-166.59796	547.87701	-315.51541	-11.86208	553.41327	-339.04855	-43.24695	562.11371	559.56207	103.48637	563.68610	539.65619	
6139	61.380	-354.90710	26.89004	-131.49318	184.69812	28.16599	-210.15775	-296.46167	17.21999	360.03137	303.35330	23.84982	318.98788	-88.99262	808.43097	-350.85480	-166.55144	548.30090	-314.66708	-12.00261	553.69373	-338.28381	-43.01194	561.81262	560.31934	103.79424	563.35583	540.35803	
6140	61.390	-354.39450	27.00363	-131.41196	185.29993	28.33806	-210.10696	-295.79675	17.13420	360.21295	303.93555	23.63975	319.13547	-89.12002	808.70679	-349.72324	-167.06122	548.79156	-313.90677	-12.24307	553.94293	-337.48557	-42.83364	561.64807	560.83154	104.19395	562.85388	541.18231	
6141	61.400	-353.76498	27.22649	-131.36298	185.79198	28.50632	-209.93950	-295.35233	17.06684	360.30667	304.29291	23.48281	319.14908	-89.10253	809.01379	-348.87665	-167.29222	549.13043	-313.13116	-12.57516	554.23834	-336.91409	-42.46140	561.21881	561.84418	104.37662	562.48871	541.70135	
6142	61.410	-353.23380	27.11137	-131.17242	186.47293	28.81954	-209.85159	-294.59253	16.75529	360.55786	305.04401	23.43687	319.37415	-89.00265	809.19055	-347.87122	-167.21916	549.28778	-312.04871	-12.75128	554.54871	-336.11887	-42.23335	560.85004	562.67151	104.97877	562.07483	542.49963	
6143	61.420	-352.32681	26.89194	-131.12828	186.78040	29.13436	-209.91129	-293.91101	16.42566	360.74088	305.89291	23.34089	319.42975	-89.21671	809.50793	-347.07040	-167.29872	549.52582	-311.36218	-12.85311	554.74335	-335.22614	-41.93434	560.52216	563.43658	105.11031	561.70770	543.03497	
6144	61.430	-351.56741	27.03679	-130.93573	187.78232	29.21885	-209.67514	-293.22580	16.43008	360.90170	306.47720	23.23894	319.50928	-89.00838	809.80676	-345.81900	-167.31064	549.71814	-310.38040	-12.89535	554.89648	-334.45795	-41.63887	560.15729	564.23816	105.44203	561.36694	543.88000	
6145	61.440	-351.18768	27.13671	-130.82961	189.63741	30.03278	-209.51129	-292.52563	16.36180	360.97003	307.03342	22.94505	319.43954	-89.06262	810.12793	-345.07111	-167.44528	550.13965	-309.64722	-13.01155	555.12262	-333.79526	-41.37856	559.85876	564.58337	105.99574	560.97284	544.65985	
6146	61.450	-350.21976	27.17138	-130.66104	189.23914	29.52759	-209.63956	-291.86176	16.23113	361.06650	307.70645	22.81922	319.59259	-89.08710	810.53479	-344.02081	-167.44527	550.30670	-308.77051	-12.85509	555.44580	-332.83417	-41.10361	559.51703	565.76099	106.29729	560.57831	545.17493	
6147	61.460	-349.61469	27.19812	-130.45027	189.73120	29.60037	-209.51129	-291.14853	15.94547	361.41055	308.70251	22.74176	319.76529	-89.05565	810.71588	-343.01056	-168.17949	550.97937	-308.55530	-13.03158	555.55811	-332.09805	-40.21149	559.01129	566.70410	106.59209	560.11871	546.20630	
6148	61.470	-348.94061	27.21898	-130.23073	190.66896	29.67038	-209.29494	-290.32913	15.74388	361.55557	309.22205	22.69202	319.87973	-89.04327	811.02405	-342.07181	-167.67856	551.05414	-307.04605	-13.00367	555.71289	-331.35876	-39.78284	558.75635	567.17505	107.25637	559.78564	546.82788	
6149	61.480	-347.98798	27.04401	-130.04974	192.17741	30.74966	-209.04530	-289.52261	15.44416	361.73141	309.88361	22.58642	319.77383	-88.91943	811.28394	-341.13751	-167.39851	551.19580	-306.06464	-12.83299	556.00409	-330.60040	-39.24846	558.47772	568.19855	107.57346	559.45972	547.55847	
6150	61.490	-347.17072	27.14592	-129.84196	192.87291	30.75844	-209.02734	-288.84628	15.30055	361.73831	310.59647	22.50633	319.81769	-88.97508	811.54504	-340.13187	-167.31242	551.38995	-305.40176	-12.81576	556.22351	-329.72827	-38.89012	558.12543	568.96204	107.83543	559.18140	548.26819	
6151	61.500	-346.73209	27.29518	-129.76669	193.59186	30.97623	-208.99873	-288.05496	15.09310	361.82266	311.62167	22.44528	319.96783	-88.94234	811.60803	-339.25360	-167.33521	551.64026	-304.56345	-12.85446	556.51447	-329.02420	-38.41817	557.74005	569.82867	108.08383	558.91400	549.09143	
6152	61.510	-345.87985	27.29598	-129.57973	193.63817	30.54671	-209.08807	-287.34830	15.02172	361.85892	312.01416	22.36850	320.14957	-88.62019	811.97302	-338.20248	-167.16174	551.80939	-303.59601	-12.63851	556.75433	-328.14844	-37.97914	557.52838	570.49042	109.05558	558.41321	549.92712	
6153	61.520	-345.14743	27.21426	-129.50261	194.51247	30.61771	-208.98665	-286.43915	14.78600	362.18347	312.95673	22.25648	320.14844	-88.76500	812.32574	-337.32370	-167.05623	552.14429	-302.87784	-12.33773	556.92413	-327.28052	-37.35274	557.23743	571.54871	109.31414	558.28809	550.32599	
6154	61.530	-344.14322	27.21114	-129.37100	195.09750	30.73416	-208.90968	-285.74109	14.64151	362.42862	314.05664	22.24302	320.06601	-88.36815	812.48737	-336.10251	-166.96382	552.32214	-302.06747	-12.88813	557.20117	-326.71277	-37.09365	557.17139	571.94531	109.96475	558.16687	551.33075	
6155	61.540	-343.12689	27.26526	-129.12579	196.50446	31.45714	-208.54135	-284.76096	14.26639	362.46237	314.53116	22.02182	320.14014	-88.41187	812.57629	-335.17249	-166.76180	552.30255	-300.87283	-12.65053	557.52478	-325.68619	-36.29942	556.65936	573.06403	110.30182	557.89325	552.12738	
6156	61.550	-342.85934	27.32564	-129.14992	197.52597	31.60032	-208.34560	-284.02432	14.18571	362.34076	315.32187	21.89471	320.23392	-88.16219	812.73645	-334.26862	-166.49113	552.56592	-300.21494	-12.59106	557.73383	-324.90527	-35.67712	556.50623	573.97021	111.23043	557.58838	552.77869	
6157	61.560	-341.90918	27.36658	-129.02586	197.69624	31.23064	-208.68893	-283.41885	14.23142	362.37564	316.54883	22.00506	320.47528	-87.72274	812.90912	-333.12329	-166.24960	552.93781	-299.34689	-12.55386	557.76770	-324.23450	-35.05114	556.22607	574.66577	111.93782	557.26947	553.48712	
6158	61.570	-341.05167	27.29580	-128.86128	198.83815	31.40851	-208.64630	-282.40112	14.02517	362.51834	317.09818	21.90419	320.50476	-87.73679	813.24255	-332.30322	-166.31360	553.39954	-298.87762	-11.35481	557.94055	-323.23642	-34.27998	556.08008	575.58661	112.27393	557.42432	554.18689	
6159	61.580	-340.19339	27.47204	-128.68086	198.89017	31.41176	-208.51450	-281.46497	13.88730	362.88126	317.60858	21.71280	320.39029	-87.45306	813.60510	-331.14209	-165.94925	553.34161	-297.42517	-11.11991	558.00330	-322.49155	-33.71038	555.94177	576.39160	113.29294	557.14056	555.12701	
